<svg xmlns="http://www.w3.org/2000/svg" width="114.24" height="52" viewBox="0 0 114.24 52">
  <g id="logo-ar" transform="translate(-239.372 -392.338)">
    <path id="Exclusion_3-2" data-name="Exclusion 3-2" d="M301.157,441.388h0a8.3,8.3,0,0,1-4.052-1.058,7.028,7.028,0,0,1-2.855-2.869,7.608,7.608,0,0,1-.784-2.6,8.786,8.786,0,0,1,.1-2.743,8.384,8.384,0,0,1,.926-2.542,6.755,6.755,0,0,1,1.682-2,7.659,7.659,0,0,1,4.749-1.614,7.877,7.877,0,0,1,5.086,1.835,7.716,7.716,0,0,1,2.531,5.46.93.93,0,0,1-.188.746,1.3,1.3,0,0,1-1,.32H302.44v.013h-2.773c-.725,0-1.292,0-1.785.011-.685.01-1.109.156-1.3.445s-.147.759.138,1.415a4.472,4.472,0,0,0,1.766,2.041,4.847,4.847,0,0,0,2.545.71,5.072,5.072,0,0,0,3.462-1.376,3.117,3.117,0,0,1,2.265-.912c.078,0,.164,0,.255.007.418.023.67.119.769.3s.054.441-.15.824a6.715,6.715,0,0,1-4.33,3.3A7.658,7.658,0,0,1,301.157,441.388Zm-.126-12.995h-.059a4.753,4.753,0,0,0-2.378.61,4.254,4.254,0,0,0-1.685,1.861c-.237.485-.291.789-.174.984s.422.3.982.326c.363.017.753.024,1.224.024.335,0,.7,0,.958-.007h.026c.288,0,.615-.006.936-.006v-.015c.307,0,.621,0,.924.005h.113c.282,0,.651.006,1,.006.517,0,.942-.008,1.34-.023a1.018,1.018,0,0,0,.888-.363,1,1,0,0,0-.105-.939A4.384,4.384,0,0,0,303.367,429a4.479,4.479,0,0,0-2.336-.609Zm-37.223,12.991h0a6.766,6.766,0,0,1-4.243-1.52,6.946,6.946,0,0,1-2.475-4.39,9.859,9.859,0,0,1,.413-5.052,7.008,7.008,0,0,1,2.886-3.516,6.149,6.149,0,0,1,7.617.855,2.337,2.337,0,0,1,.162.185c.145.179.3.363.53.363a.553.553,0,0,0,.14-.021c.334-.094.314-.4.3-.665v-.012c0-.038-.005-.079-.006-.119a1.044,1.044,0,0,1,.235-.792,1.646,1.646,0,0,1,1.169-.306h.057a1.422,1.422,0,0,1,1.053.311,1.119,1.119,0,0,1,.268.839v12.088a1.777,1.777,0,0,1-.213.991,1.052,1.052,0,0,1-.925.421c-.112,0-.2,0-.285,0-.663,0-1.316-.087-1.394-1.107-.038-.51-.206-.79-.47-.79a.95.95,0,0,0-.631.4,5.461,5.461,0,0,1-4.186,1.834Zm.6-12.658a4.353,4.353,0,0,0-4.275,2.882,5.988,5.988,0,0,0-.362,2.128,5.076,5.076,0,0,0,1.344,3.5,4.5,4.5,0,0,0,3.3,1.416h.029a4.53,4.53,0,0,0,3.223-1.343,5.162,5.162,0,0,0,1.435-3.722,5.047,5.047,0,0,0-1.34-3.494,4.593,4.593,0,0,0-3.35-1.37Zm54.661,12.637h0a8.724,8.724,0,0,1-2.93-.511c-2.919-1.037-4.566-3.416-4.762-6.881a7.917,7.917,0,0,1,.445-3.187,7.051,7.051,0,0,1,1.52-2.454,7.768,7.768,0,0,1,5.627-2.374c.162,0,.328.005.493.016a7.47,7.47,0,0,1,4.776,2.142,7.073,7.073,0,0,1,2.126,4.683c.038.778-.063,1.053-.226,1.227-.2.208-.537.292-1.213.3-.548.007-1.146.01-1.882.01h-2.787v.009c-.489,0-.99,0-1.372,0h-1.436c-.733,0-1.325.005-1.862.017-.618.013-.983.134-1.147.379s-.138.653.1,1.265a4.475,4.475,0,0,0,1.829,2.2,5.174,5.174,0,0,0,2.719.773,4.682,4.682,0,0,0,3.323-1.331c.07-.07.135-.145.2-.22h0l.007-.009a2.773,2.773,0,0,1,.261-.284,3.454,3.454,0,0,1,1.851-.481c.415,0,.7.077.785.217.436.679-.014,1.165-.413,1.6-.109.116-.185.2-.253.286a7.314,7.314,0,0,1-5.773,2.618Zm-.227-9.171h1.132c.249,0,.559,0,.85,0,.479,0,.887-.006,1.282-.02.546-.02.871-.137,1-.358s.057-.566-.213-1.045a4.775,4.775,0,0,0-1.62-1.759,4.271,4.271,0,0,0-2.265-.639h-.052a4.517,4.517,0,0,0-4.133,2.512c-.226.412-.28.715-.161.926s.417.33.907.354c.384.018.794.027,1.289.027.28,0,.571,0,.828-.005h.291c.267,0,.57-.005.858-.005h0v.008Zm11.294,8.9a.939.939,0,0,1-1.016-.6,2.759,2.759,0,0,1,.288-2.671,6.649,6.649,0,0,1,.666-.752h0l.006-.007.012-.012c.071-.071.163-.166.252-.261l1.84-1.962.061-.065.02-.022.188-.2c1.152-1.228,2.344-2.5,3.489-3.727l.045-.049.147-.159.033-.036.087-.087.146-.155c.05-.054.105-.106.162-.159.241-.226.49-.46.348-.808a.653.653,0,0,0-.706-.381c-.068,0-.137,0-.207.006s-.141.006-.212.006h-.013c-.742-.009-1.862-.019-3.011-.019-.759,0-1.417,0-2.014.013H330.7a1.308,1.308,0,0,1-.969-.308,1.382,1.382,0,0,1-.306-1.03c.01-.871.395-1.242,1.284-1.242h5.4c1.26,0,2.257,0,3.136.014h.02c.13,0,.261-.01.407-.022h.033c.131-.01.294-.024.446-.024a.931.931,0,0,1,1.03.665,2.6,2.6,0,0,1-.591,2.8c-1.442,1.459-2.868,2.962-4.248,4.415l-.015.016h0l-1.219,1.287c-.56.588-1.088,1.173-1.575,1.719-.03.032-.064.068-.106.111l-.011.011c-.21.213-.426.435-.249.768.158.3.456.326.75.326h1.249c.472,0,1.185.005,1.85.005,1.151,0,2.082-.01,2.932-.031h.2a1.5,1.5,0,0,1,.854.179,1.006,1.006,0,0,1,.344.871,1.646,1.646,0,0,1-.335,1.229,1.328,1.328,0,0,1-.986.321h-.051c-.571-.01-1.19-.014-1.946-.014h-2.845v.007h-2.462c-.676,0-1.231-.006-1.742-.018h-.062c-.111,0-.223.007-.342.015h-.068a1.841,1.841,0,0,1-.379.034Zm-89.308-.021h-.049a1.51,1.51,0,0,1-1.031-.31,1.282,1.282,0,0,1-.339-1.006c.015-2.312.015-4.442,0-6.518a1.219,1.219,0,0,1,.29-.915,1.353,1.353,0,0,1,1-.307h.023c.931.006,1.886.01,2.921.01,1.153,0,2.377,0,3.741-.012a4.541,4.541,0,0,0,2.986-1.045,3.422,3.422,0,0,0,.01-5.146,4.466,4.466,0,0,0-2.921-1.051c-.67-.009-1.371-.012-2.273-.012h-2.368c-.726,0-1.33,0-1.9-.009a1.242,1.242,0,0,1-1.5-1.635.87.87,0,0,1,1-.939h.042c.529.009,1.092.013,1.776.013h2.429v.016h2.089c.482,0,.9,0,1.3-.008h.095a5.706,5.706,0,0,1,5.32,3.409,6.075,6.075,0,0,1,.733,3.206,5.657,5.657,0,0,1-1.188,3.061c-.735.976-.942,1.673-.027,2.787,1.273,1.546,1.258,3.462,1.125,5.454-.055.825-.658.939-1.3.939h-.045c-.754-.006-1.132-.334-1.17-1-.012-.233-.016-.47-.018-.7v-.032c-.007-.371-.012-.753-.051-1.132a3.479,3.479,0,0,0-3.779-3.421H243.4a1.048,1.048,0,0,0-1.2,1.2c0,.513,0,1.037-.007,1.489v.051c-.006.679-.013,1.449,0,2.185a1.382,1.382,0,0,1-.31,1.045,1.43,1.43,0,0,1-1.064.333Zm37.059-.01a1.323,1.323,0,0,1-.979-.314,1.38,1.38,0,0,1-.322-1.025c.009-5.072.014-10.556,0-16.289,0-1.115.7-1.229,1.533-1.258h.075a.965.965,0,0,1,.713.23,1.48,1.48,0,0,1,.261,1.062v3.491h.012v1.139c0,.842,0,1.713-.005,2.588a1.377,1.377,0,0,0,.321,1.021,1.243,1.243,0,0,0,.918.31h.115c.08,0,.166-.005.261-.005.219,0,.45.01.62.017h.037c.174.007.386.016.588.016a3.1,3.1,0,0,0,1.591-.348,3.709,3.709,0,0,0,1.881-3.508,1.741,1.741,0,0,1,.292-1.228c.2-.208.517-.293,1.106-.293h.092a1.306,1.306,0,0,1,.974.332,1.258,1.258,0,0,1,.272.965,7.966,7.966,0,0,1-.8,3.484,1.182,1.182,0,0,0,.3,1.645c.029.02.057.038.088.056a6.575,6.575,0,0,1,2.165,3.121,9.547,9.547,0,0,1,.348,3.79c-.077.922-.722,1-1.377,1h-.035a1.727,1.727,0,0,1-.894-.184.909.909,0,0,1-.4-.806c-.013-.307-.016-.61-.017-.92v-.005c0-.422-.006-.858-.037-1.284a3.112,3.112,0,0,0-3.267-3.089c-.261,0-.537-.007-.843-.007h-1.751c-.447,0-.811,0-1.145-.014h-.087a1.36,1.36,0,0,0-1.015.326,1.393,1.393,0,0,0-.309,1.051c.017.731.01,1.45,0,2.146,0,.444-.009.958-.005,1.46.005.9-.375,1.307-1.235,1.319Zm55.193-23.277c-.316,0-.638-.005-.922-.01h-.427c-.775-.01-1.117-.413-1.106-1.307.01-.809.354-1.192,1.085-1.206.288-.005.575-.006.845-.007h.033c.477,0,.97,0,1.456-.027a4.537,4.537,0,0,0,4.7-4.726c.034-1.47.027-2.953.02-4.387v-.034c0-.665-.007-1.437-.005-2.2a1.5,1.5,0,0,0-.789-1.544c-.749-.394-.6-1.15-.48-1.758.124-.632.688-.672,1.186-.707.361-.025.774-.052,1.116-.052.757,0,1.111.132,1.307.485a4.673,4.673,0,0,1,.234,2.022v5.531c0,.925.006,1.881-.008,2.836a7.093,7.093,0,0,1-1.672,4.6,7.2,7.2,0,0,1-4.316,2.337,13.545,13.545,0,0,1-2.253.153Zm-53.811,0c-.221,0-.449,0-.622-.006h-.017c-.174,0-.4-.005-.621-.005h-.234a1.112,1.112,0,0,1-.927-.357,1.52,1.52,0,0,1-.261-.981,1.038,1.038,0,0,1,1.188-1.192h.3c.251,0,.51.005.763.005.511,0,.924-.011,1.3-.036a4.724,4.724,0,0,0,3.174-1.412,4.573,4.573,0,0,0,1.237-3.2c.008-1.388.005-2.774,0-4.114v-2.521a1.755,1.755,0,0,0-.679-1.632,1.582,1.582,0,0,1-.381-1.916c.163-.51.591-.553,1.017-.553h.385c.224-.006.459-.011.66-.011.706,0,1.132.061,1.338.381a3.86,3.86,0,0,1,.219,1.813v2.032c0,1.065,0,2.391.007,3.672.005.7.052,1.117.286,1.356s.645.29,1.325.3c.61.009,1.233.013,1.859.013.594,0,1.227,0,1.882-.012.7-.009,1.116-.057,1.356-.29s.289-.647.294-1.326c.017-2.122.018-4.275,0-6.4-.005-.8.087-1.515,1.242-1.532h.045a1.3,1.3,0,0,1,.963.306,1.748,1.748,0,0,1,.325,1.258c-.011,1.045-.008,2.091,0,3.1v.072c0,1.09.008,2.217-.006,3.351a1.249,1.249,0,0,0,1.454,1.481h0c4.69-.008,9.367-.011,13.9-.011,4.727,0,9.527,0,14.265.014h.007c1.051,0,1.469-.436,1.493-1.563.05-2.3-.276-3.638-1.086-4.464s-2.135-1.176-4.429-1.176h-6.716c-2.178,0-4.168,0-5.907-.005-.742,0-1.192-.05-1.439-.3s-.294-.709-.29-1.47a9.006,9.006,0,0,1,1.3-5.112,6.811,6.811,0,0,1,3.979-2.686,8.807,8.807,0,0,1,2.463-.3c.593,0,1.2.035,1.728.065h.073c.261.015.563.031.847.043a.719.719,0,0,1,.7.436,2.312,2.312,0,0,1,.116.871c.005.791-.3,1.168-.967,1.186-.392.01-.784.012-1.12.012H316.8c-.619,0-1.26,0-1.9.038a4.918,4.918,0,0,0-2.479.769,4.336,4.336,0,0,0-1.591,2.04c-.3.757-.348,1.256-.133,1.568s.7.463,1.515.468c1.018.005,2.032.018,3.012.031h.118c1.114.015,2.5.033,3.817.033,1.778,0,3.246-.032,4.617-.1.1-.005.2-.008.3-.008a6.367,6.367,0,0,1,4.574,1.981,6.141,6.141,0,0,1,1.706,4.6c-.042.821-.03,1.648-.019,2.449v.046c.005.38.01.809.01,1.229-.006,1.773-.092,1.86-1.837,1.861H298.56c-3.888,0-6.867-.01-9.663-.031h-.042a2.043,2.043,0,0,0-2.229,1.49,6.3,6.3,0,0,1-2.372,3.032,8.3,8.3,0,0,1-3.666,1.252,11.2,11.2,0,0,1-1.322.083Zm18.481-.348h0a3.067,3.067,0,0,1-1.307-.912,1.97,1.97,0,0,1-.635-.933c0-.241.436-.734.8-1.084a2.727,2.727,0,0,1,1.141-.757h0a2.506,2.506,0,0,1,1.2.845,2.1,2.1,0,0,1,.632,1.068,2.342,2.342,0,0,1-.751,1.075,2.259,2.259,0,0,1-1.087.7Zm-4.654,0a3.838,3.838,0,0,1-1.971-1.793c-.022-.4,1.357-1.8,1.8-1.835h.014a2.8,2.8,0,0,1,1.132.741c.372.341.812.827.829,1.068a1.66,1.66,0,0,1-.5.871,2.9,2.9,0,0,1-1.287.948Zm-8.211-20.257h-.01a2.318,2.318,0,0,1-1.053-.7,2.244,2.244,0,0,1-.719-1.023c-.011-.245.348-.709.682-1.062.4-.421.927-.845,1.2-.847a2.56,2.56,0,0,1,1.158.8,2.223,2.223,0,0,1,.7.993c0,.253-.429.745-.8,1.089a2.671,2.671,0,0,1-1.156.746Z" transform="translate(0 0)" fill="#1e59d5"/>
    <path id="Exclusion_3-2-2" data-name="Exclusion 3-2" d="M301.157,441.388h0a8.3,8.3,0,0,1-4.052-1.058,7.028,7.028,0,0,1-2.855-2.869,7.608,7.608,0,0,1-.784-2.6,8.786,8.786,0,0,1,.1-2.743,8.384,8.384,0,0,1,.926-2.542,6.755,6.755,0,0,1,1.682-2,7.659,7.659,0,0,1,4.749-1.614,7.877,7.877,0,0,1,5.086,1.835,7.716,7.716,0,0,1,2.531,5.46.93.93,0,0,1-.188.746,1.3,1.3,0,0,1-1,.32H302.44v.013h-2.773c-.725,0-1.292,0-1.785.011-.685.01-1.109.156-1.3.445s-.147.759.138,1.415a4.472,4.472,0,0,0,1.766,2.041,4.847,4.847,0,0,0,2.545.71,5.072,5.072,0,0,0,3.462-1.376,3.117,3.117,0,0,1,2.265-.912c.078,0,.164,0,.255.007.418.023.67.119.769.3s.054.441-.15.824a6.715,6.715,0,0,1-4.33,3.3A7.658,7.658,0,0,1,301.157,441.388Zm-.126-12.995h-.059a4.753,4.753,0,0,0-2.378.61,4.254,4.254,0,0,0-1.685,1.861c-.237.485-.291.789-.174.984s.422.3.982.326c.363.017.753.024,1.224.024.335,0,.7,0,.958-.007h.026c.288,0,.615-.006.936-.006v-.015c.307,0,.621,0,.924.005h.113c.282,0,.651.006,1,.006.517,0,.942-.008,1.34-.023a1.018,1.018,0,0,0,.888-.363,1,1,0,0,0-.105-.939A4.384,4.384,0,0,0,303.367,429a4.479,4.479,0,0,0-2.336-.609Zm-37.223,12.991h0a6.766,6.766,0,0,1-4.243-1.52,6.946,6.946,0,0,1-2.475-4.39,9.859,9.859,0,0,1,.413-5.052,7.008,7.008,0,0,1,2.886-3.516,6.149,6.149,0,0,1,7.617.855,2.337,2.337,0,0,1,.162.185c.145.179.3.363.53.363a.553.553,0,0,0,.14-.021c.334-.094.314-.4.3-.665v-.012c0-.038-.005-.079-.006-.119a1.044,1.044,0,0,1,.235-.792,1.646,1.646,0,0,1,1.169-.306h.057a1.422,1.422,0,0,1,1.053.311,1.119,1.119,0,0,1,.268.839v12.088a1.777,1.777,0,0,1-.213.991,1.052,1.052,0,0,1-.925.421c-.112,0-.2,0-.285,0-.663,0-1.316-.087-1.394-1.107-.038-.51-.206-.79-.47-.79a.95.95,0,0,0-.631.4,5.461,5.461,0,0,1-4.186,1.834Zm.6-12.658a4.353,4.353,0,0,0-4.275,2.882,5.988,5.988,0,0,0-.362,2.128,5.076,5.076,0,0,0,1.344,3.5,4.5,4.5,0,0,0,3.3,1.416h.029a4.53,4.53,0,0,0,3.223-1.343,5.162,5.162,0,0,0,1.435-3.722,5.047,5.047,0,0,0-1.34-3.494,4.593,4.593,0,0,0-3.35-1.37Zm54.661,12.637h0a8.724,8.724,0,0,1-2.93-.511c-2.919-1.037-4.566-3.416-4.762-6.881a7.917,7.917,0,0,1,.445-3.187,7.051,7.051,0,0,1,1.52-2.454,7.768,7.768,0,0,1,5.627-2.374c.162,0,.328.005.493.016a7.47,7.47,0,0,1,4.776,2.142,7.073,7.073,0,0,1,2.126,4.683c.038.778-.063,1.053-.226,1.227-.2.208-.537.292-1.213.3-.548.007-1.146.01-1.882.01h-2.787v.009c-.489,0-.99,0-1.372,0h-1.436c-.733,0-1.325.005-1.862.017-.618.013-.983.134-1.147.379s-.138.653.1,1.265a4.475,4.475,0,0,0,1.829,2.2,5.174,5.174,0,0,0,2.719.773,4.682,4.682,0,0,0,3.323-1.331c.07-.07.135-.145.2-.22h0l.007-.009a2.773,2.773,0,0,1,.261-.284,3.454,3.454,0,0,1,1.851-.481c.415,0,.7.077.785.217.436.679-.014,1.165-.413,1.6-.109.116-.185.2-.253.286a7.314,7.314,0,0,1-5.773,2.618Zm-.227-9.171h1.132c.249,0,.559,0,.85,0,.479,0,.887-.006,1.282-.02.546-.02.871-.137,1-.358s.057-.566-.213-1.045a4.775,4.775,0,0,0-1.62-1.759,4.271,4.271,0,0,0-2.265-.639h-.052a4.517,4.517,0,0,0-4.133,2.512c-.226.412-.28.715-.161.926s.417.33.907.354c.384.018.794.027,1.289.027.28,0,.571,0,.828-.005h.291c.267,0,.57-.005.858-.005h0v.008Zm11.294,8.9a.939.939,0,0,1-1.016-.6,2.759,2.759,0,0,1,.288-2.671,6.649,6.649,0,0,1,.666-.752h0l.006-.007.012-.012c.071-.071.163-.166.252-.261l1.84-1.962.061-.065.02-.022.188-.2c1.152-1.228,2.344-2.5,3.489-3.727l.045-.049.147-.159.033-.036.087-.087.146-.155c.05-.054.105-.106.162-.159.241-.226.49-.46.348-.808a.653.653,0,0,0-.706-.381c-.068,0-.137,0-.207.006s-.141.006-.212.006h-.013c-.742-.009-1.862-.019-3.011-.019-.759,0-1.417,0-2.014.013H330.7a1.308,1.308,0,0,1-.969-.308,1.382,1.382,0,0,1-.306-1.03c.01-.871.395-1.242,1.284-1.242h5.4c1.26,0,2.257,0,3.136.014h.02c.13,0,.261-.01.407-.022h.033c.131-.01.294-.024.446-.024a.931.931,0,0,1,1.03.665,2.6,2.6,0,0,1-.591,2.8c-1.442,1.459-2.868,2.962-4.248,4.415l-.015.016h0l-1.219,1.287c-.56.588-1.088,1.173-1.575,1.719-.03.032-.064.068-.106.111l-.011.011c-.21.213-.426.435-.249.768.158.3.456.326.75.326h1.249c.472,0,1.185.005,1.85.005,1.151,0,2.082-.01,2.932-.031h.2a1.5,1.5,0,0,1,.854.179,1.006,1.006,0,0,1,.344.871,1.646,1.646,0,0,1-.335,1.229,1.328,1.328,0,0,1-.986.321h-.051c-.571-.01-1.19-.014-1.946-.014h-2.845v.007h-2.462c-.676,0-1.231-.006-1.742-.018h-.062c-.111,0-.223.007-.342.015h-.068a1.841,1.841,0,0,1-.379.034Zm-89.308-.021h-.049a1.51,1.51,0,0,1-1.031-.31,1.282,1.282,0,0,1-.339-1.006c.015-2.312.015-4.442,0-6.518a1.219,1.219,0,0,1,.29-.915,1.353,1.353,0,0,1,1-.307h.023c.931.006,1.886.01,2.921.01,1.153,0,2.377,0,3.741-.012a4.541,4.541,0,0,0,2.986-1.045,3.422,3.422,0,0,0,.01-5.146,4.466,4.466,0,0,0-2.921-1.051c-.67-.009-1.371-.012-2.273-.012h-2.368c-.726,0-1.33,0-1.9-.009a1.242,1.242,0,0,1-1.5-1.635.87.87,0,0,1,1-.939h.042c.529.009,1.092.013,1.776.013h2.429v.016h2.089c.482,0,.9,0,1.3-.008h.095a5.706,5.706,0,0,1,5.32,3.409,6.075,6.075,0,0,1,.733,3.206,5.657,5.657,0,0,1-1.188,3.061c-.735.976-.942,1.673-.027,2.787,1.273,1.546,1.258,3.462,1.125,5.454-.055.825-.658.939-1.3.939h-.045c-.754-.006-1.132-.334-1.17-1-.012-.233-.016-.47-.018-.7v-.032c-.007-.371-.012-.753-.051-1.132a3.479,3.479,0,0,0-3.779-3.421H243.4a1.048,1.048,0,0,0-1.2,1.2c0,.513,0,1.037-.007,1.489v.051c-.006.679-.013,1.449,0,2.185a1.382,1.382,0,0,1-.31,1.045,1.43,1.43,0,0,1-1.064.333Zm37.059-.01a1.323,1.323,0,0,1-.979-.314,1.38,1.38,0,0,1-.322-1.025c.009-5.072.014-10.556,0-16.289,0-1.115.7-1.229,1.533-1.258h.075a.965.965,0,0,1,.713.23,1.48,1.48,0,0,1,.261,1.062v3.491h.012v1.139c0,.842,0,1.713-.005,2.588a1.377,1.377,0,0,0,.321,1.021,1.243,1.243,0,0,0,.918.31h.115c.08,0,.166-.005.261-.005.219,0,.45.01.62.017h.037c.174.007.386.016.588.016a3.1,3.1,0,0,0,1.591-.348,3.709,3.709,0,0,0,1.881-3.508,1.741,1.741,0,0,1,.292-1.228c.2-.208.517-.293,1.106-.293h.092a1.306,1.306,0,0,1,.974.332,1.258,1.258,0,0,1,.272.965,7.966,7.966,0,0,1-.8,3.484,1.182,1.182,0,0,0,.3,1.645c.029.02.057.038.088.056a6.575,6.575,0,0,1,2.165,3.121,9.547,9.547,0,0,1,.348,3.79c-.077.922-.722,1-1.377,1h-.035a1.727,1.727,0,0,1-.894-.184.909.909,0,0,1-.4-.806c-.013-.307-.016-.61-.017-.92v-.005c0-.422-.006-.858-.037-1.284a3.112,3.112,0,0,0-3.267-3.089c-.261,0-.537-.007-.843-.007h-1.751c-.447,0-.811,0-1.145-.014h-.087a1.36,1.36,0,0,0-1.015.326,1.393,1.393,0,0,0-.309,1.051c.017.731.01,1.45,0,2.146,0,.444-.009.958-.005,1.46.005.9-.375,1.307-1.235,1.319Zm55.193-23.277c-.316,0-.638-.005-.922-.01h-.427c-.775-.01-1.117-.413-1.106-1.307.01-.809.354-1.192,1.085-1.206.288-.005.575-.006.845-.007h.033c.477,0,.97,0,1.456-.027a4.537,4.537,0,0,0,4.7-4.726c.034-1.47.027-2.953.02-4.387v-.034c0-.665-.007-1.437-.005-2.2a1.5,1.5,0,0,0-.789-1.544c-.749-.394-.6-1.15-.48-1.758.124-.632.688-.672,1.186-.707.361-.025.774-.052,1.116-.052.757,0,1.111.132,1.307.485a4.673,4.673,0,0,1,.234,2.022v5.531c0,.925.006,1.881-.008,2.836a7.093,7.093,0,0,1-1.672,4.6,7.2,7.2,0,0,1-4.316,2.337,13.545,13.545,0,0,1-2.253.153Zm-53.811,0c-.221,0-.449,0-.622-.006h-.017c-.174,0-.4-.005-.621-.005h-.234a1.112,1.112,0,0,1-.927-.357,1.52,1.52,0,0,1-.261-.981,1.038,1.038,0,0,1,1.188-1.192h.3c.251,0,.51.005.763.005.511,0,.924-.011,1.3-.036a4.724,4.724,0,0,0,3.174-1.412,4.573,4.573,0,0,0,1.237-3.2c.008-1.388.005-2.774,0-4.114v-2.521a1.755,1.755,0,0,0-.679-1.632,1.582,1.582,0,0,1-.381-1.916c.163-.51.591-.553,1.017-.553h.385c.224-.006.459-.011.66-.011.706,0,1.132.061,1.338.381a3.86,3.86,0,0,1,.219,1.813v2.032c0,1.065,0,2.391.007,3.672.005.7.052,1.117.286,1.356s.645.29,1.325.3c.61.009,1.233.013,1.859.013.594,0,1.227,0,1.882-.012.7-.009,1.116-.057,1.356-.29s.289-.647.294-1.326c.017-2.122.018-4.275,0-6.4-.005-.8.087-1.515,1.242-1.532h.045a1.3,1.3,0,0,1,.963.306,1.748,1.748,0,0,1,.325,1.258c-.011,1.045-.008,2.091,0,3.1v.072c0,1.09.008,2.217-.006,3.351a1.249,1.249,0,0,0,1.454,1.481h0c4.69-.008,9.367-.011,13.9-.011,4.727,0,9.527,0,14.265.014h.007c1.051,0,1.469-.436,1.493-1.563.05-2.3-.276-3.638-1.086-4.464s-2.135-1.176-4.429-1.176h-6.716c-2.178,0-4.168,0-5.907-.005-.742,0-1.192-.05-1.439-.3s-.294-.709-.29-1.47a9.006,9.006,0,0,1,1.3-5.112,6.811,6.811,0,0,1,3.979-2.686,8.807,8.807,0,0,1,2.463-.3c.593,0,1.2.035,1.728.065h.073c.261.015.563.031.847.043a.719.719,0,0,1,.7.436,2.312,2.312,0,0,1,.116.871c.005.791-.3,1.168-.967,1.186-.392.01-.784.012-1.12.012H316.8c-.619,0-1.26,0-1.9.038a4.918,4.918,0,0,0-2.479.769,4.336,4.336,0,0,0-1.591,2.04c-.3.757-.348,1.256-.133,1.568s.7.463,1.515.468c1.018.005,2.032.018,3.012.031h.118c1.114.015,2.5.033,3.817.033,1.778,0,3.246-.032,4.617-.1.1-.005.2-.008.3-.008a6.367,6.367,0,0,1,4.574,1.981,6.141,6.141,0,0,1,1.706,4.6c-.042.821-.03,1.648-.019,2.449v.046c.005.38.01.809.01,1.229-.006,1.773-.092,1.86-1.837,1.861H298.56c-3.888,0-6.867-.01-9.663-.031h-.042a2.043,2.043,0,0,0-2.229,1.49,6.3,6.3,0,0,1-2.372,3.032,8.3,8.3,0,0,1-3.666,1.252,11.2,11.2,0,0,1-1.322.083Zm18.481-.348h0a3.067,3.067,0,0,1-1.307-.912,1.97,1.97,0,0,1-.635-.933c0-.241.436-.734.8-1.084a2.727,2.727,0,0,1,1.141-.757h0a2.506,2.506,0,0,1,1.2.845,2.1,2.1,0,0,1,.632,1.068,2.342,2.342,0,0,1-.751,1.075,2.259,2.259,0,0,1-1.087.7Zm-4.654,0a3.838,3.838,0,0,1-1.971-1.793c-.022-.4,1.357-1.8,1.8-1.835h.014a2.8,2.8,0,0,1,1.132.741c.372.341.812.827.829,1.068a1.66,1.66,0,0,1-.5.871,2.9,2.9,0,0,1-1.287.948Zm-8.211-20.257h-.01a2.318,2.318,0,0,1-1.053-.7,2.244,2.244,0,0,1-.719-1.023c-.011-.245.348-.709.682-1.062.4-.421.927-.845,1.2-.847a2.56,2.56,0,0,1,1.158.8,2.223,2.223,0,0,1,.7.993c0,.253-.429.745-.8,1.089a2.671,2.671,0,0,1-1.156.746Z" transform="translate(0 0)" fill="#1e59d5"/>
    <text id="_" data-name="®" transform="translate(342.612 441.338)" fill="#1e59d5" font-size="14" font-family="Arial-BoldMT, Arial" font-weight="700"><tspan x="0" y="0">®</tspan></text>
  </g>
</svg>
